<?xml version="1.0" standalone="no"?>
<!DOCTYPE svg PUBLIC "-//W3C//DTD SVG 20010904//EN"
 "http://www.w3.org/TR/2001/REC-SVG-20010904/DTD/svg10.dtd">
<svg version="1.0" xmlns="http://www.w3.org/2000/svg"
 width="1545.000000pt" height="1545.000000pt" viewBox="0 0 1545.000000 1545.000000"
 preserveAspectRatio="xMidYMid meet">
<metadata>
Created by potrace 1.14, written by Peter Selinger 2001-2017
</metadata>
<g transform="translate(0.000000,1545.000000) scale(0.100000,-0.100000)"
fill="#000000" stroke="none">
<path d="M3300 14733 c-8 -3 -23 -12 -32 -21 -17 -14 -18 -246 -18 -4596 0
-2520 4 -4586 8 -4592 4 -5 88 -75 187 -155 1254 -1006 2349 -2254 3158 -3600
117 -195 274 -476 361 -646 45 -88 63 -113 85 -121 28 -10 58 -1 73 22 4 6 8
1764 8 3906 0 3890 0 3896 -20 3990 -250 1150 -754 2266 -1523 3370 -315 452
-732 965 -1122 1380 -105 113 -520 527 -615 615 -252 233 -515 458 -532 454
-1 0 -10 -3 -18 -6z"/>
<path d="M12115 14721 c-16 -10 -86 -67 -155 -126 -530 -455 -1081 -1024
-1551 -1600 -124 -153 -130 -161 -270 -345 -897 -1179 -1524 -2495 -1779
-3736 -20 -95 -20 -149 -20 -3953 0 -3040 3 -3861 13 -3880 16 -32 59 -44 87
-24 11 8 43 60 71 116 280 563 753 1296 1251 1939 163 210 531 651 608 728 3
3 50 55 105 115 462 510 1071 1078 1605 1497 66 51 122 101 126 112 8 24 8
9107 0 9133 -4 11 -18 25 -32 31 -31 15 -23 15 -59 -7z"/>
<path d="M13720 13153 c-36 -14 -817 -466 -832 -481 -18 -19 -20 -268 -34
-5367 -5 -1866 -8 -2224 -20 -2242 -8 -12 -68 -59 -135 -104 -329 -223 -710
-526 -1054 -839 -73 -66 -537 -529 -621 -620 -492 -530 -1019 -1252 -1372
-1881 -39 -70 -42 -112 -7 -135 36 -24 58 -14 165 72 84 68 720 546 777 584
23 16 167 118 266 189 34 25 163 113 287 197 939 633 1814 1099 2475 1320 90
30 167 61 175 72 13 16 15 540 15 4611 l0 4593 -24 19 c-24 20 -35 22 -61 12z"/>
<path d="M1684 13142 c-6 -4 -16 -16 -22 -28 -8 -15 -11 -1317 -11 -4616 0
-4567 0 -4596 19 -4621 11 -14 35 -29 53 -32 58 -13 279 -91 420 -149 216 -88
392 -169 642 -296 275 -140 392 -205 785 -435 122 -72 524 -329 735 -470 391
-262 859 -602 1270 -920 170 -131 204 -155 225 -155 16 0 60 46 60 63 0 16
-148 276 -247 435 -274 440 -632 926 -954 1297 -369 425 -680 733 -1152 1142
-164 142 -480 383 -719 549 -84 58 -157 113 -164 122 -9 13 -13 616 -18 2507
-8 3251 -16 5085 -21 5112 -4 16 -104 78 -427 262 -231 133 -431 241 -442 241
-12 0 -26 -4 -32 -8z"/>
<path d="M15125 11605 c-121 -24 -231 -46 -245 -48 -159 -29 -299 -61 -317
-73 -22 -14 -23 -21 -23 -147 -1 -72 -3 -321 -5 -552 -2 -231 -6 -1043 -9
-1805 -4 -762 -9 -1617 -11 -1900 -3 -283 -7 -1120 -11 -1860 -9 -2059 -8
-1918 -24 -1934 -8 -8 -89 -42 -180 -74 -281 -102 -720 -275 -856 -337 -16 -8
-68 -30 -115 -50 -615 -263 -1376 -679 -1924 -1053 -410 -280 -842 -627 -1087
-875 -53 -53 -62 -91 -30 -120 28 -26 58 -21 136 22 1157 635 2930 1177 4811
1470 145 23 193 34 202 47 11 14 13 920 13 4659 0 4484 -1 4642 -18 4658 -26
24 -60 21 -307 -28z"/>
<path d="M16 11618 c-14 -20 -16 -480 -16 -4671 0 -2991 3 -4655 10 -4666 13
-26 25 -29 179 -51 926 -136 2102 -411 2991 -702 372 -121 856 -302 1103 -412
18 -8 86 -38 152 -67 66 -29 248 -117 405 -196 156 -78 294 -143 307 -143 30
0 53 26 53 60 0 23 -18 46 -92 118 -497 478 -1187 968 -1958 1392 -585 321
-1251 620 -1954 875 -109 40 -207 80 -217 89 -18 15 -19 36 -19 408 -1 216 -3
530 -5 698 -2 168 -6 960 -10 1760 -4 800 -8 1649 -10 1885 -2 237 -6 1105
-10 1930 -4 825 -11 1509 -15 1520 -13 35 -29 41 -175 69 -77 15 -254 49 -392
76 -139 28 -266 50 -282 50 -20 0 -35 -8 -45 -22z"/>
</g>
</svg>
